<svg width="187" height="227" viewBox="0 0 187 227" fill="none" xmlns="http://www.w3.org/2000/svg">
<ellipse cx="116.5" cy="136" rx="68.5" ry="70" fill="#0085FF"/>
<circle cx="137" cy="15" r="15" fill="#0085FF"/>
<circle cx="160.5" cy="47.5" r="7.5" fill="#E77726" fill-opacity="0.75"/>
<circle cx="62" cy="220" r="5" fill="#8F00FF"/>
<circle cx="136.5" cy="220.5" r="6.5" fill="#E77726" fill-opacity="0.75"/>
<circle cx="12.5" cy="94.5" r="12.5" fill="#F99072" fill-opacity="0.63"/>
<circle cx="89.5" cy="77.5" r="47.5" fill="#FDBA37"/>
<circle cx="81" cy="150" r="56" fill="#8F00FF"/>
<circle cx="137" cy="110" r="50" fill="#FF6E40" fill-opacity="0.77"/>
<ellipse cx="102" cy="126.5" rx="68" ry="68.5" fill="black" fill-opacity="0.14"/>
<ellipse cx="102" cy="126.5" rx="68" ry="68.5" fill="white" fill-opacity="0.68"/>
<circle cx="99" cy="125" r="65" fill="black"/>
<path d="M90.416 132.056L81.56 126.752C81.128 126.48 80.912 126.112 80.912 125.648C80.912 125.232 81.128 124.872 81.56 124.568L90.416 119.24C90.848 119.016 91.264 119.016 91.664 119.24C92.064 119.448 92.264 119.784 92.264 120.248C92.264 120.728 92.064 121.088 91.664 121.328L83.576 126.128V125.096L91.664 129.944C92.064 130.2 92.264 130.552 92.264 131C92.264 131.32 92.16 131.592 91.952 131.816C91.76 132.024 91.52 132.16 91.232 132.224C90.944 132.272 90.672 132.216 90.416 132.056ZM95.237 135.776C94.789 135.776 94.445 135.592 94.205 135.224C93.981 134.872 93.957 134.48 94.133 134.048L101.357 115.976C101.453 115.752 101.605 115.576 101.813 115.448C102.021 115.32 102.245 115.256 102.485 115.256C102.901 115.256 103.229 115.432 103.469 115.784C103.725 116.12 103.765 116.52 103.589 116.984L96.365 135.056C96.269 135.312 96.109 135.496 95.885 135.608C95.677 135.72 95.461 135.776 95.237 135.776ZM107.135 132.056C106.879 132.216 106.607 132.272 106.319 132.224C106.031 132.16 105.783 132.024 105.575 131.816C105.383 131.592 105.287 131.32 105.287 131C105.287 130.552 105.487 130.2 105.887 129.944L113.975 125.096V126.128L105.887 121.328C105.487 121.088 105.287 120.728 105.287 120.248C105.287 119.784 105.487 119.448 105.887 119.24C106.287 119.016 106.703 119.016 107.135 119.24L115.991 124.568C116.423 124.872 116.639 125.232 116.639 125.648C116.639 126.112 116.423 126.48 115.991 126.752L107.135 132.056Z" fill="white"/>
<path d="M63.5 147.825V103.877L99.7816 86.6669L134.5 103.859V147.843L99.7808 166.309L63.5 147.825Z" stroke="white" stroke-width="3"/>
</svg>
